<?xml version="1.0" encoding="UTF-8"?>
<svg version="1.1" xmlns="http://www.w3.org/2000/svg" width="319" height="211">
<path d="M0 0 C2.51640836 0.56822124 4.44335917 -0.02322631 6.9375 -0.5625 C9.51127917 2.01127917 8.17208945 9.16725847 8.1875 12.625 C8.208125 13.76259766 8.22875 14.90019531 8.25 16.07226562 C8.30070977 26.93049591 8.30070977 26.93049591 4.9375 31.4375 C0.81638807 34.4019589 -4.20234122 34.08237544 -9.0625 33.4375 C-12.22275526 31.63163985 -13.63971965 30.60827636 -14.875 27.1875 C-14.9678125 26.32125 -14.9678125 26.32125 -15.0625 25.4375 C-12.1875 25.3125 -12.1875 25.3125 -9.0625 25.4375 C-8.4025 26.0975 -7.7425 26.7575 -7.0625 27.4375 C-3.47906024 27.60427282 -3.47906024 27.60427282 -0.0625 27.4375 C0.5975 25.4575 1.2575 23.4775 1.9375 21.4375 C1.40125 21.7675 0.865 22.0975 0.3125 22.4375 C-2.76590819 23.73367187 -4.73966638 23.83624003 -8.0625 23.4375 C-11.34157806 21.73490178 -13.46315176 20.34955168 -15.5 17.25 C-16.32097867 13.14510665 -16.21788458 9.47403348 -15.0625 5.4375 C-10.71120293 0.08205745 -6.88489425 -1.87769843 0 0 Z M-8.3125 6.0625 C-10.28235834 8.36058586 -10.28235834 8.36058586 -10.5625 11.4375 C-10.26980025 14.50811639 -10.26980025 14.50811639 -8.375 16.875 C-6.17352813 18.68801858 -6.17352813 18.68801858 -3.5 18.375 C-0.84599928 17.35423049 0.37857407 16.81691326 1.9375 14.4375 C2.4893663 10.73211199 2.43119241 9.10751113 0.1875 6.0625 C-3.03429699 3.73564662 -5.09070301 3.73564662 -8.3125 6.0625 Z " fill="#325FC1" transform="translate(256.0625,97.5625)"/>
<path d="M0 0 C1.19109375 0.13535156 1.19109375 0.13535156 2.40625 0.2734375 C4.5 0.625 4.5 0.625 6.5 1.625 C6.5 0.965 6.5 0.305 6.5 -0.375 C8.975 0.12 8.975 0.12 11.5 0.625 C11.5 7.885 11.5 15.145 11.5 22.625 C8.86 22.625 6.22 22.625 3.5 22.625 C2.30375 22.851875 1.1075 23.07875 -0.125 23.3125 C-4.37211953 23.70575181 -6.0888747 23.18334398 -9.5 20.625 C-11.86201145 16.80283602 -12.5 13.40483287 -12.5 8.9375 C-11.29859952 4.95786089 -9.67124062 3.2548093 -6.5 0.625 C-4.01458657 -0.61770671 -2.73584621 -0.32865685 0 0 Z M-4.8125 6.1875 C-6.84668762 8.61922187 -6.84668762 8.61922187 -6.4375 12.1875 C-5.70117831 15.48838532 -5.70117831 15.48838532 -4.3125 17.625 C-1.49566248 19.17911725 0.48911707 18.45779741 3.5 17.625 C5.92144512 15.62814251 5.92144512 15.62814251 5.875 11.6875 C5.79908499 8.69970202 5.77604948 7.94048512 3.75 5.625 C0.36547875 4.12076833 -1.7347077 4.10791061 -4.8125 6.1875 Z " fill="#2E61D0" transform="translate(225.5,97.375)"/>
<path d="M0 0 C0.66 0.33 1.32 0.66 2 1 C2 0.34 2 -0.32 2 -1 C3.65 -1 5.3 -1 7 -1 C7 6.59 7 14.18 7 22 C4.66666667 22 2.33333333 22 0 22 C-1.258125 22.226875 -2.51625 22.45375 -3.8125 22.6875 C-6.85099399 23.07281627 -7.89272442 23.04529414 -10.8125 21.8125 C-13.72182184 19.40191905 -15.71935967 17.41723365 -16.46875 13.6328125 C-16.52379938 9.21509966 -16.52988457 5.98404026 -13.6875 2.4375 C-8.9898069 -1.8231984 -5.86479218 -0.93091939 0 0 Z M-9.375 6.125 C-11.25627982 8.90300794 -11.25627982 8.90300794 -11 12.125 C-10.19710122 15.03449886 -10.19710122 15.03449886 -8.25 16.9375 C-6.02828127 18.19253336 -6.02828127 18.19253336 -3.4375 17.9375 C-0.40886984 16.77264225 0.57953798 15.91983859 2 13 C1.87046154 9.82630784 1.51878767 7.77818151 -0.25 5.125 C-3.92390139 2.76320625 -6.20079816 3.28492467 -9.375 6.125 Z " fill="#2D62D5" transform="translate(163,98)"/>
<path d="M0 0 C3.0625 2.0625 3.0625 2.0625 5 5 C5 7.64 5 10.28 5 13 C-0.28 13 -5.56 13 -11 13 C-10.67 14.32 -10.34 15.64 -10 17 C-5.2102679 17.23428313 -5.2102679 17.23428313 -1 15 C2.1875 14.875 2.1875 14.875 5 15 C2.69158879 20.58878505 2.69158879 20.58878505 -0.3125 22.375 C-5.09396506 23.48696862 -7.84154813 23.62378177 -12.25 21.25 C-16.1503268 18.05882353 -16.1503268 18.05882353 -17 15 C-17.42161717 9.68762372 -17.53159711 6.26227237 -14 2 C-9.67663621 -1.81473275 -5.29662601 -1.54205567 0 0 Z M-11 6 C-11 6.99 -11 7.98 -11 9 C-7.37 9 -3.74 9 0 9 C-1.57836298 5.31622777 -1.57836298 5.31622777 -3 4 C-6.72224599 3.70613847 -7.77786243 3.85190829 -11 6 Z " fill="#2A5FD1" transform="translate(284,98)"/>
<path d="M0 0 C1.65 0 3.3 0 5 0 C6.96822886 1.96822886 6.66248381 5.34808709 7 8 C7.66 7.67 8.32 7.34 9 7 C12.87214182 6.56976202 14.52496371 6.68330914 17.8125 8.875 C20.89485849 11.8692911 20.98707913 12.48213147 21.09765625 16.9140625 C21.09100226 18.48440463 21.07906939 20.05473119 21.0625 21.625 C21.05798828 22.42679688 21.05347656 23.22859375 21.04882812 24.0546875 C21.03703168 26.03649006 21.01909605 28.01825433 21 30 C19.35 30 17.7 30 16 30 C15.95101562 29.02417969 15.90203125 28.04835938 15.8515625 27.04296875 C15.73941406 25.13451172 15.73941406 25.13451172 15.625 23.1875 C15.55539063 21.92292969 15.48578125 20.65835938 15.4140625 19.35546875 C15.23897061 15.87244766 15.23897061 15.87244766 13 13 C10.45792029 12.66656449 10.45792029 12.66656449 8 13 C6.01912963 14.98087037 6.63501301 18.77473748 6.5 21.5 C6.13513514 28.86486486 6.13513514 28.86486486 5 30 C3.35 30 1.7 30 0 30 C0 20.1 0 10.2 0 0 Z " fill="#030303" transform="translate(100,90)"/>
<path d="M0 0 C2.62309529 1.79094092 3.34245592 3.11266516 5 6 C5 8.31 5 10.62 5 13 C-2.92 13.495 -2.92 13.495 -11 14 C-8.39767576 17.2186325 -8.39767576 17.2186325 -5.4375 17.3125 C-2.82203581 17.22966747 -2.82203581 17.22966747 -1 15 C2.125 14.875 2.125 14.875 5 15 C2.93642263 19.0185454 1.264181 21.33140744 -3 23 C-8.0112266 23.39178681 -11.09999804 22.71632809 -15.0625 19.5625 C-17.49177381 16.049787 -17.70448737 12.59697348 -17.49609375 8.41015625 C-16.67780285 4.43467998 -14.98841191 2.7104201 -12 0 C-7.80247348 -1.39917551 -4.25327235 -1.19925893 0 0 Z M-9 4 C-10.485 6.475 -10.485 6.475 -12 9 C-8.04 9 -4.08 9 0 9 C-0.99 7.35 -1.98 5.7 -3 4 C-6 3.16666667 -6 3.16666667 -9 4 Z " fill="#020202" transform="translate(68,98)"/>
<path d="M0 0 C1.32 0 2.64 0 4 0 C4 0.66 4 1.32 4 2 C4.495 1.649375 4.99 1.29875 5.5 0.9375 C9.04825154 -0.39309433 12.44779551 -0.38064198 16 1 C18.37017126 3.12983921 19.81041854 4.79259572 20.31445312 8.00268555 C20.39335017 10.28589509 20.34947784 12.53024878 20.25 14.8125 C20.23195312 15.60076172 20.21390625 16.38902344 20.1953125 17.20117188 C20.14844048 19.13464261 20.0767041 21.06748285 20 23 C18.35 23 16.7 23 15 23 C14.95101562 22.10796875 14.90203125 21.2159375 14.8515625 20.296875 C14.73941406 18.54117188 14.73941406 18.54117188 14.625 16.75 C14.55539063 15.58984375 14.48578125 14.4296875 14.4140625 13.234375 C14.03751692 10.29305666 13.5225877 8.50050989 12 6 C10.35 6 8.7 6 7 6 C4.84940691 9.53186832 4.6202272 12.66287993 4.375 16.75 C4.26285156 18.50570312 4.26285156 18.50570312 4.1484375 20.296875 C4.07496094 21.63492188 4.07496094 21.63492188 4 23 C2.35 23 0.7 23 -1 23 C-1.02887512 19.35418313 -1.04675585 15.70839537 -1.0625 12.0625 C-1.07087891 11.02158203 -1.07925781 9.98066406 -1.08789062 8.90820312 C-1.09272461 7.42416992 -1.09272461 7.42416992 -1.09765625 5.91015625 C-1.10289307 4.99371338 -1.10812988 4.07727051 -1.11352539 3.13305664 C-1 1 -1 1 0 0 Z " fill="#3163CC" transform="translate(176,97)"/>
<path d="M0 0 C2.99452434 2.24589325 3.81623122 3.44869367 5 7 C2.125 7.125 2.125 7.125 -1 7 C-1.66 6.34 -2.32 5.68 -3 5 C-6.58343976 4.83322718 -6.58343976 4.83322718 -10 5 C-10 8.96 -10 12.92 -10 17 C-6.58343976 17.16677282 -6.58343976 17.16677282 -3 17 C-2.34 16.34 -1.68 15.68 -1 15 C2.125 14.875 2.125 14.875 5 15 C2.93649601 19.01840251 1.16638532 21.15903905 -3 23 C-6.98248997 23.5931368 -8.67640929 23.17424115 -12.25 21.25 C-16.1503268 18.05882353 -16.1503268 18.05882353 -17 15 C-17.46846274 10.15921834 -17.50094246 7.96610332 -15.25 3.625 C-10.76551703 -1.6068968 -6.41474762 -1.65085417 0 0 Z " fill="#030303" transform="translate(92,98)"/>
<path d="M0 0 C2.32421875 0.08984375 2.32421875 0.08984375 5 1 C6.58203125 3.94140625 6.58203125 3.94140625 7.8125 7.5625 C8.23144531 8.76003906 8.65039062 9.95757812 9.08203125 11.19140625 C9.38496094 12.11824219 9.68789062 13.04507813 10 14 C12.96221145 11.03778855 13.52722627 7.3954716 14.70703125 3.43359375 C16 1 16 1 18.63671875 0.16015625 C19.41660156 0.10730469 20.19648438 0.05445312 21 0 C22.1916143 3.57484289 21.74788456 4.28587882 20.34765625 7.66796875 C19.98349609 8.56064453 19.61933594 9.45332031 19.24414062 10.37304688 C18.85419922 11.30181641 18.46425781 12.23058594 18.0625 13.1875 C17.67642578 14.12787109 17.29035156 15.06824219 16.89257812 16.03710938 C15.93678351 18.36169628 14.97232993 20.68229199 14 23 C11.69 23 9.38 23 7 23 C5.63342877 19.54643925 4.28387972 16.08647708 2.9375 12.625 C2.54755859 11.64015625 2.15761719 10.6553125 1.75585938 9.640625 C1.39169922 8.69960937 1.02753906 7.75859375 0.65234375 6.7890625 C0.31195068 5.91975098 -0.02844238 5.05043945 -0.37915039 4.15478516 C-1 2 -1 2 0 0 Z " fill="#2B60DA" transform="translate(124,97)"/>
<path d="M0 0 C1.98 0 3.96 0 6 0 C6 1.65 6 3.3 6 5 C7.65 5.33 9.3 5.66 11 6 C11 7.32 11 8.64 11 10 C9.35 10 7.7 10 6 10 C6.33 14.29 6.66 18.58 7 23 C8.32 23.33 9.64 23.66 11 24 C11 25.32 11 26.64 11 28 C5.04296875 28.390625 5.04296875 28.390625 3 28 C0.30983647 25.59806828 0.01389501 24.1637759 -0.29296875 20.546875 C-0.25816406 19.29390625 -0.22335938 18.0409375 -0.1875 16.75 C-0.16042969 15.48671875 -0.13335937 14.2234375 -0.10546875 12.921875 C-0.07066406 11.95765625 -0.03585938 10.9934375 0 10 C-0.66 10 -1.32 10 -2 10 C-2 8.35 -2 6.7 -2 5 C-1.34 5 -0.68 5 0 5 C0 3.35 0 1.7 0 0 Z " fill="#2862E3" transform="translate(201,92)"/>
<path d="M0 0 C7.26 0 14.52 0 22 0 C22 1.32 22 2.64 22 4 C19.69 4.33 17.38 4.66 15 5 C15.00523682 5.6612085 15.01047363 6.32241699 15.01586914 7.00366211 C15.03657656 9.98159851 15.04964012 12.95951982 15.0625 15.9375 C15.07087891 16.97841797 15.07925781 18.01933594 15.08789062 19.09179688 C15.09111328 20.08115234 15.09433594 21.07050781 15.09765625 22.08984375 C15.10289307 23.00628662 15.10812988 23.92272949 15.11352539 24.86694336 C15 27 15 27 14 28 C12.35 28 10.7 28 9 28 C9 20.08 9 12.16 9 4 C6.69 4 4.38 4 2 4 C2 3.01 2 2.02 2 1 C1.34 0.67 0.68 0.34 0 0 Z " fill="#020202" transform="translate(27,92)"/>
<path d="M0 0 C1.36421031 2.72842061 0.87807211 4.60953318 0.5625 7.625 C0.40974609 9.12933594 0.40974609 9.12933594 0.25390625 10.6640625 C0.17011719 11.43492188 0.08632812 12.20578125 0 13 C0.66 13 1.32 13 2 13 C1.67 10.36 1.34 7.72 1 5 C1.99 4.67 2.98 4.34 4 4 C4.16276042 6.01822917 4.32552083 8.03645833 4.48828125 10.0546875 C4.87393036 12.39519216 4.87393036 12.39519216 8 14 C10.58333333 13.91666667 10.58333333 13.91666667 13 13 C15.33296251 10.17282787 15.33296251 10.17282787 14.75 6.9375 C14.2406756 3.900541 14.2406756 3.900541 12 2 C9.21697081 1.79127281 7.51281795 1.74359102 5 3 C5 2.01 5 1.02 5 0 C8.07387731 -0.35467815 10.93776507 -0.5059803 14 0 C16.9291147 3.00055652 17.84107779 5.0067362 18.5 9.125 C17.88646605 12.65282021 16.59876875 13.64486582 14 16 C14 16.99 14 17.98 14 19 C6.8075495 20.34096535 6.8075495 20.34096535 3.1875 18.8125 C0.22015025 16.35383877 -1.78888115 14.43697024 -2.36328125 10.52734375 C-2.34652344 9.67269531 -2.32976562 8.81804687 -2.3125 7.9375 C-2.30863281 7.08027344 -2.30476562 6.22304687 -2.30078125 5.33984375 C-2 3 -2 3 0 0 Z " fill="#3162D0" transform="translate(149,101)"/>
<path d="M0 0 C0.05799124 3.77076889 0.09359306 7.54142334 0.125 11.3125 C0.14175781 12.38435547 0.15851563 13.45621094 0.17578125 14.56054688 C0.18222656 15.58857422 0.18867188 16.61660156 0.1953125 17.67578125 C0.20578613 18.62364502 0.21625977 19.57150879 0.22705078 20.5480957 C0 23 0 23 -2 26 C-2.66 26 -3.32 26 -4 26 C-4.103125 24.906875 -4.20625 23.81375 -4.3125 22.6875 C-4.97307727 19.14440371 -5.2027092 18.06756277 -8 16 C-7.34 15.67 -6.68 15.34 -6 15 C-5.92345464 10.48382401 -5.89771304 6.40914783 -7 2 C-4 0 -4 0 0 0 Z " fill="#2761E7" transform="translate(263,99)"/>
<path d="M0 0 C0.99 0.495 0.99 0.495 2 1 C2.60613909 4.98565046 2.74564735 8.97274969 3 13 C3.33 8.71 3.66 4.42 4 0 C4.66 0 5.32 0 6 0 C6.33 4.29 6.66 8.58 7 13 C8.32 13.33 9.64 13.66 11 14 C11 15.32 11 16.64 11 18 C5.04296875 18.390625 5.04296875 18.390625 3 18 C0.30983647 15.59806828 0.01389501 14.1637759 -0.29296875 10.546875 C-0.25816406 9.29390625 -0.22335938 8.0409375 -0.1875 6.75 C-0.16042969 5.48671875 -0.13335937 4.2234375 -0.10546875 2.921875 C-0.07066406 1.95765625 -0.03585938 0.9934375 0 0 Z " fill="#305FC7" transform="translate(201,102)"/>
<path d="M0 0 C0.33 0.66 0.66 1.32 1 2 C1.99 2 2.98 2 4 2 C4 2.66 4 3.32 4 4 C8.571279 3.45144652 12.67435795 2.58255197 17 1 C17 2.65 17 4.3 17 6 C10.82389951 7.87488765 5.07897008 9.03948504 -1 6 C-1.042721 4.33388095 -1.04063832 2.66617115 -1 1 C-0.67 0.67 -0.34 0.34 0 0 Z " fill="#2F62D7" transform="translate(218,113)"/>
<path d="M0 0 C0.99 0.66 1.98 1.32 3 2 C2.67 2.66 2.34 3.32 2 4 C1.01 3.34 0.02 2.68 -1 2 C-4.12521833 1.83300768 -4.12521833 1.83300768 -7 2 C-7.33 2.99 -7.66 3.98 -8 5 C-9.4375 6.6875 -9.4375 6.6875 -11 8 C-11.66 8 -12.32 8 -13 8 C-13 7.34 -13 6.68 -13 6 C-13.66 6 -14.32 6 -15 6 C-15.33 8.97 -15.66 11.94 -16 15 C-16.33 15 -16.66 15 -17 15 C-17.44933921 6.16299559 -17.44933921 6.16299559 -14 2 C-9.67912048 -1.81254075 -5.31757422 -1.32441455 0 0 Z " fill="#315FC3" transform="translate(284,98)"/>
<path d="M0 0 C3.49186021 -0.20145347 6.19917389 -0.34907805 9.4375 1.0625 C11.76643994 3.95038552 11.27050795 6.41576962 11 10 C7.04 10 3.08 10 -1 10 C-0.67 9.34 -0.34 8.68 0 8 C2.64 8 5.28 8 8 8 C6.29374499 5.21611025 5.52373261 4.14615794 2.3125 3.25 C1.1678125 3.12625 1.1678125 3.12625 0 3 C0 2.01 0 1.02 0 0 Z " fill="#2461E6" transform="translate(276,99)"/>
<path d="M0 0 C1.65 0.33 3.3 0.66 5 1 C4.54965877 2.62723299 4.08944646 4.25173664 3.625 5.875 C3.36976563 6.77992187 3.11453125 7.68484375 2.8515625 8.6171875 C2 11 2 11 0 13 C0 11.02 0 9.04 0 7 C-0.66 7 -1.32 7 -2 7 C-2.33 9.31 -2.66 11.62 -3 14 C-3.66 14 -4.32 14 -5 14 C-4.54857225 12.22739369 -4.08859477 10.4569632 -3.625 8.6875 C-3.36976563 7.70136719 -3.11453125 6.71523437 -2.8515625 5.69921875 C-2 3 -2 3 0 0 Z " fill="#3461C8" transform="translate(141,97)"/>
<path d="M0 0 C2.875 -0.125 2.875 -0.125 6 0 C6.66 0.66 7.32 1.32 8 2 C10.32275177 2.40047444 12.65739357 2.7397104 15 3 C15 3.33 15 3.66 15 4 C12.69 4.33 10.38 4.66 8 5 C8 5.33 8 5.66 8 6 C10.64 6.33 13.28 6.66 16 7 C16 7.33 16 7.66 16 8 C7.0899654 8.62283737 7.0899654 8.62283737 2.9375 6.25 C1.04448076 4.05165508 0.30538536 2.85026332 0 0 Z " fill="#2C5CB9" transform="translate(241,123)"/>
<path d="M0 0 C1.32 0.66 2.64 1.32 4 2 C4 6.62 4 11.24 4 16 C3.01 16 2.02 16 1 16 C1 15.34 1 14.68 1 14 C-0.65 14.33 -2.3 14.66 -4 15 C-3.35675781 14.76023437 -2.71351563 14.52046875 -2.05078125 14.2734375 C0.1785714 13.19664408 0.1785714 13.19664408 0.64453125 10.9765625 C0.69996094 10.20054688 0.75539062 9.42453125 0.8125 8.625 C0.88082031 7.85414062 0.94914063 7.08328125 1.01953125 6.2890625 C1.00015809 4.01852779 0.64837076 2.16783507 0 0 Z " fill="#2762EA" transform="translate(165,103)"/>
<path d="M0 0 C0.66 0 1.32 0 2 0 C3.50156874 3.00313748 3.09281204 5.79067522 3.0625 9.125 C3.05347656 10.40632813 3.04445312 11.68765625 3.03515625 13.0078125 C3.02355469 13.99523437 3.01195312 14.98265625 3 16 C2.01 16 1.02 16 0 16 C0 12.04 0 8.08 0 4 C-0.66 3.67 -1.32 3.34 -2 3 C-1.34 3 -0.68 3 0 3 C0 2.01 0 1.02 0 0 Z " fill="#2460E8" transform="translate(192,103)"/>
<path d="M0 0 C1.98 0 3.96 0 6 0 C6 1.65 6 3.3 6 5 C7.32 5.33 8.64 5.66 10 6 C7.625 6.1875 7.625 6.1875 5 6 C4.34 5.01 3.68 4.02 3 3 C2.67 3.99 2.34 4.98 2 6 C1.01 6 0.02 6 -1 6 C-0.67 7.32 -0.34 8.64 0 10 C-0.66 10 -1.32 10 -2 10 C-2 8.35 -2 6.7 -2 5 C-1.34 5 -0.68 5 0 5 C0 3.35 0 1.7 0 0 Z " fill="#3361B9" transform="translate(201,92)"/>
<path d="M0 0 C1.67542976 0.28604898 3.34385343 0.61781233 5 1 C4.67 1.66 4.34 2.32 4 3 C3.34 2.67 2.68 2.34 2 2 C2.495 3.19625 2.99 4.3925 3.5 5.625 C4.85911235 9.21101476 5.2899464 12.13404799 5 16 C2.95349609 12.93024413 2.00295435 10.30915848 0.875 6.8125 C0.52179688 5.72582031 0.16859375 4.63914062 -0.1953125 3.51953125 C-0.46085937 2.68808594 -0.72640625 1.85664062 -1 1 C-0.67 0.67 -0.34 0.34 0 0 Z " fill="#2E5CB4" transform="translate(124,97)"/>
<path d="M0 0 C0 3.63 0 7.26 0 11 C-0.99 11.495 -0.99 11.495 -2 12 C-2 10.02 -2 8.04 -2 6 C-2.66 6 -3.32 6 -4 6 C-4 4.35 -4 2.7 -4 1 C-1 0 -1 0 0 0 Z " fill="#2763E7" transform="translate(245,104)"/>
<path d="M0 0 C3.375 -0.125 3.375 -0.125 7 0 C9 2 9 2 9.125 4.625 C9.08375 5.40875 9.0425 6.1925 9 7 C8.443125 6.525625 7.88625 6.05125 7.3125 5.5625 C4.81653926 3.87604004 2.9553763 3.41046893 0 3 C0 2.01 0 1.02 0 0 Z " fill="#225AD2" transform="translate(276,99)"/>
<path d="M0 0 C2.475 0.495 2.475 0.495 5 1 C5 8.26 5 15.52 5 23 C4.67 23 4.34 23 4 23 C3.67 16.4 3.34 9.8 3 3 C2.01 2.67 1.02 2.34 0 2 C0 1.34 0 0.68 0 0 Z " fill="#3E62B3" transform="translate(232,97)"/>
<path d="M0 0 C1.8871875 0.0309375 1.8871875 0.0309375 3.8125 0.0625 C3.8125 0.7225 3.8125 1.3825 3.8125 2.0625 C2.1625 2.0625 0.5125 2.0625 -1.1875 2.0625 C-1.1875 2.7225 -1.1875 3.3825 -1.1875 4.0625 C-3.1675 4.0625 -5.1475 4.0625 -7.1875 4.0625 C-7.1875 3.0725 -7.1875 2.0825 -7.1875 1.0625 C-4.43671116 0.14557039 -2.82801087 -0.04636083 0 0 Z " fill="#2763E0" transform="translate(251.1875,98.9375)"/>
<path d="M0 0 C0.33 0.66 0.66 1.32 1 2 C1.99 2 2.98 2 4 2 C4 2.66 4 3.32 4 4 C5.32 4.33 6.64 4.66 8 5 C8 5.33 8 5.66 8 6 C5.03 6 2.06 6 -1 6 C-1.042721 4.33388095 -1.04063832 2.66617115 -1 1 C-0.67 0.67 -0.34 0.34 0 0 Z " fill="#275EE6" transform="translate(218,113)"/>
<path d="M0 0 C3.05073847 -0.28780552 5.95821528 -0.42606559 9 0 C11.70484537 2.78681038 11.96927128 4.45712589 12.1875 8.3125 C12.125625 9.199375 12.06375 10.08625 12 11 C11.01 11.495 11.01 11.495 10 12 C10.061875 11.0925 10.12375 10.185 10.1875 9.25 C9.98103345 5.67124653 9.65315971 4.37869491 7 2 C4.14708645 1.65208371 2.5745284 1.7127358 0 3 C0 2.01 0 1.02 0 0 Z " fill="#3662C3" transform="translate(154,101)"/>
<path d="M0 0 C-0.11344376 2.1464753 -0.24106345 4.29220592 -0.375 6.4375 C-0.47941406 8.22994141 -0.47941406 8.22994141 -0.5859375 10.05859375 C-0.72257812 11.02925781 -0.85921875 11.99992187 -1 13 C-1.99 13.495 -1.99 13.495 -3 14 C-2.979375 12.783125 -2.95875 11.56625 -2.9375 10.3125 C-2.93175884 7.08022678 -3.21233685 4.15065259 -4 1 C-2 0 -2 0 0 0 Z " fill="#2761D1" transform="translate(260,100)"/>
<path d="M0 0 C0.33 0.66 0.66 1.32 1 2 C1.66 2 2.32 2 3 2 C3 4.64 3 7.28 3 10 C2.01 10 1.02 10 0 10 C0 6.7 0 3.4 0 0 Z " fill="#000000" transform="translate(117,110)"/>
<path d="M0 0 C2.97 0 5.94 0 9 0 C9 0.66 9 1.32 9 2 C4.545 2.495 4.545 2.495 0 3 C0 2.01 0 1.02 0 0 Z " fill="#2663E8" transform="translate(249,127)"/>
<path d="M0 0 C0.99 0 1.98 0 3 0 C3 1.98 3 3.96 3 6 C1.68 6 0.36 6 -1 6 C-0.67 4.02 -0.34 2.04 0 0 Z " fill="#2A62E5" transform="translate(217,100)"/>
<path d="M0 0 C1.98 0 3.96 0 6 0 C5.67 1.32 5.34 2.64 5 4 C3.68 4 2.36 4 1 4 C0.67 2.68 0.34 1.36 0 0 Z " fill="#2F5FCA" transform="translate(241,123)"/>
<path d="M0 0 C4.455 0.99 4.455 0.99 9 2 C9 2.66 9 3.32 9 4 C2.25 4.125 2.25 4.125 0 3 C0 2.01 0 1.02 0 0 Z " fill="#2763E9" transform="translate(246,115)"/>
<path d="M0 0 C0.33 0 0.66 0 1 0 C1 1.65 1 3.3 1 5 C1.66 5 2.32 5 3 5 C3 6.65 3 8.3 3 10 C2.01 10 1.02 10 0 10 C0 6.7 0 3.4 0 0 Z " fill="#2A62DF" transform="translate(192,109)"/>
<path d="M0 0 C0.66 0 1.32 0 2 0 C2.1953125 1.98567708 2.390625 3.97135417 2.5859375 5.95703125 C2.92665391 8.29988142 2.92665391 8.29988142 5 11 C4.01 11 3.02 11 2 11 C1.01 7.7 0.02 4.4 -1 1 C-0.67 0.67 -0.34 0.34 0 0 Z " fill="#3360C2" transform="translate(151,105)"/>
<path d="M0 0 C0.99 0 1.98 0 3 0 C3 2.31 3 4.62 3 7 C1.68 5.68 0.36 4.36 -1 3 C-0.67 2.01 -0.34 1.02 0 0 Z " fill="#2565DE" transform="translate(166,98)"/>
<path d="M0 0 C3.125 -0.1875 3.125 -0.1875 6 0 C5.34 1.65 4.68 3.3 4 5 C3.34 4.67 2.68 4.34 2 4 C2.33 3.34 2.66 2.68 3 2 C1.35 2.33 -0.3 2.66 -2 3 C-1.34 2.01 -0.68 1.02 0 0 Z " fill="#3861B8" transform="translate(283,113)"/>
<path d="M0 0 C2.64 0 5.28 0 8 0 C8.33 0.99 8.66 1.98 9 3 C6.03 2.67 3.06 2.34 0 2 C0 1.34 0 0.68 0 0 Z " fill="#2962E9" transform="translate(183,99)"/>
</svg>
